<?xml version="1.0" encoding="utf-8"?>
<svg version="1.1" id="Layer_1" xmlns="http://www.w3.org/2000/svg" xmlns:xlink="http://www.w3.org/1999/xlink" x="0px" y="0px"
	 viewBox="0 0 18 18" style="enable-background:new 0 0 18 18;" xml:space="preserve">
  <path
    fillRule="evenodd"
    d="M9 1a8 8 0 110 16A8 8 0 119 1zm0 2C5.691 3 3 5.691 3 9s2.691 6 6 6 6-2.691 6-6-2.691-6-6-6zm0 2a1 1 0 01.993.883L10 6v2h2a1 1 0 01.117 1.993L12 10h-2v2a1 1 0 01-1.993.117L8 12v-2H6a1 1 0 01-.117-1.993L6 8h2V6a1 1 0 011-1z"
  />
</svg>